<?xml version="1.0" encoding="utf-8"?>
<!-- Generator: Adobe Illustrator 25.2.0, SVG Export Plug-In . SVG Version: 6.00 Build 0)  -->
<svg version="1.1" id="Layer_1" xmlns="http://www.w3.org/2000/svg" xmlns:xlink="http://www.w3.org/1999/xlink" x="0px" y="0px"
	 viewBox="0 0 200 50" style="enable-background:new 0 0 200 50;" xml:space="preserve">
<style type="text/css">
	.st0{fill:#016FD0;}
</style>
<g id="Symbols">
	<g id="logos-_x2F_-amex">
		<g id="amex-logo">
			<path id="path3046" class="st0" d="M9.3,0.1L0,21.8h6.1l1.7-4.3h10l1.7,4.3h6.2L16.4,0.1H9.3z M12.8,5.2l3.1,7.6H9.7L12.8,5.2
				L12.8,5.2z"/>
			<polygon id="path3048" class="st0" points="26.4,21.8 26.4,0.1 35,0.1 40.1,14.1 45,0.1 53.5,0.1 53.5,21.8 48.1,21.8 48.1,5.8 
				42.4,21.8 37.6,21.8 31.8,5.8 31.8,21.8 			"/>
			<polygon id="path3050" class="st0" points="57.3,21.8 57.3,0.1 75,0.1 75,5 62.7,5 62.7,8.7 74.7,8.7 74.7,13.2 62.7,13.2 
				62.7,17.1 75,17.1 75,21.8 			"/>
			<path id="path3052" class="st0" d="M78.1,0.1v21.7h5.4v-7.7h2.3l6.5,7.7H99l-7.1-8c2.9-0.2,6-2.8,6-6.7c0-4.6-3.6-7-7.6-7H78.1
				L78.1,0.1z M83.5,5h6.2c1.5,0,2.6,1.2,2.6,2.3c0,1.4-1.4,2.3-2.5,2.3h-6.3V5L83.5,5z"/>
			<polygon id="path3054" class="st0" points="105.5,21.8 100,21.8 100,0.1 105.5,0.1 			"/>
			<path id="path3056" class="st0" d="M118.7,21.8h-1.2c-5.8,0-9.3-4.6-9.3-10.8c0-6.4,3.5-10.9,10.8-10.9h6v5.1h-6.2
				c-3,0-5.1,2.3-5.1,5.9c0,4.2,2.4,6,5.9,6h1.4L118.7,21.8z"/>
			<path id="path3058" class="st0" d="M130.5,0.1l-9.3,21.7h6.1l1.7-4.3h10l1.7,4.3h6.2l-9.3-21.7H130.5z M134,5.2l3.1,7.6h-6.1
				L134,5.2z"/>
			<polygon id="path3060" class="st0" points="147.5,21.8 147.5,0.1 154.4,0.1 163.3,13.7 163.3,0.1 168.7,0.1 168.7,21.8 162,21.8 
				153,7.8 153,21.8 			"/>
			<polygon id="path3062" class="st0" points="39.5,49.8 39.5,28.1 57.3,28.1 57.3,33 45,33 45,36.7 57,36.7 57,41.3 45,41.3 
				45,45.1 57.3,45.1 57.3,49.8 			"/>
			<polygon id="path3064" class="st0" points="126.3,49.8 126.3,28.1 144.1,28.1 144.1,33 131.8,33 131.8,36.7 143.7,36.7 
				143.7,41.3 131.8,41.3 131.8,45.1 144.1,45.1 144.1,49.8 			"/>
			<polygon id="path3066" class="st0" points="57.9,49.8 66.6,39.1 57.7,28.1 64.6,28.1 69.8,34.9 75.1,28.1 81.7,28.1 73,39 
				81.6,49.8 74.8,49.8 69.7,43.1 64.7,49.8 			"/>
			<path id="path3068" class="st0" d="M82.3,28.1v21.7h5.6V43h5.7c4.8,0,8.5-2.6,8.5-7.6c0-4.1-2.9-7.3-7.8-7.3H82.3L82.3,28.1z
				 M87.8,33h6c1.6,0,2.7,1,2.7,2.5c0,1.4-1.1,2.5-2.7,2.5h-6V33z"/>
			<path id="path3072" class="st0" d="M104.4,28.1v21.7h5.4v-7.7h2.3l6.5,7.7h6.6l-7.1-8c2.9-0.2,6-2.8,6-6.7c0-4.6-3.6-7-7.6-7
				H104.4L104.4,28.1z M109.8,33h6.2c1.5,0,2.6,1.2,2.6,2.3c0,1.4-1.4,2.3-2.5,2.3h-6.3V33L109.8,33z"/>
			<path id="path3074" class="st0" d="M146.6,49.8v-4.7h10.9c1.6,0,2.3-0.9,2.3-1.8c0-0.9-0.7-1.8-2.3-1.8h-4.9
				c-4.3,0-6.6-2.6-6.6-6.5c0-3.5,2.2-6.8,8.5-6.8H165l-2.3,4.9h-9.1c-1.7,0-2.3,0.9-2.3,1.8c0,0.9,0.7,1.9,2,1.9h5.1
				c4.8,0,6.8,2.7,6.8,6.2c0,3.8-2.3,6.9-7.1,6.9H146.6z"/>
			<path id="path3076" class="st0" d="M166.5,49.8v-4.7h10.9c1.6,0,2.3-0.9,2.3-1.8c0-0.9-0.7-1.8-2.3-1.8h-4.9
				c-4.3,0-6.6-2.6-6.6-6.5c0-3.5,2.2-6.8,8.5-6.8h10.6l-2.3,4.9h-9.1c-1.7,0-2.3,0.9-2.3,1.8c0,0.9,0.7,1.9,2,1.9h5.1
				c4.8,0,6.8,2.7,6.8,6.2c0,3.8-2.3,6.9-7.1,6.9H166.5z"/>
		</g>
	</g>
</g>
</svg>
