<?xml version="1.0" encoding="utf-8"?>
<!-- Generator: Adobe Illustrator 26.1.0, SVG Export Plug-In . SVG Version: 6.00 Build 0)  -->
<svg version="1.1"
	 id="svg2" inkscape:version="0.92.4 (5da689c313, 2019-01-14)" sodipodi:docname="Discovery logo.svg" xmlns:cc="http://creativecommons.org/ns#" xmlns:dc="http://purl.org/dc/elements/1.1/" xmlns:inkscape="http://www.inkscape.org/namespaces/inkscape" xmlns:rdf="http://www.w3.org/1999/02/22-rdf-syntax-ns#" xmlns:sodipodi="http://sodipodi.sourceforge.net/DTD/sodipodi-0.dtd" xmlns:svg="http://www.w3.org/2000/svg"
	 xmlns="http://www.w3.org/2000/svg" xmlns:xlink="http://www.w3.org/1999/xlink" x="0px" y="0px" viewBox="0 0 80 31.9"
	 style="enable-background:new 0 0 80 31.9;" xml:space="preserve">
<style type="text/css">
	.st0{fill:#FFFFFF;}
</style>
<g>
	
		<sodipodi:namedview  bordercolor="#666666" borderopacity="1.0" gridtolerance="1" id="base" inkscape:current-layer="layer1" inkscape:cx="67.324889" inkscape:cy="17.742447" inkscape:document-units="px" inkscape:pageopacity="0.0" inkscape:pageshadow="2" inkscape:showpageshadow="false" inkscape:window-height="705" inkscape:window-maximized="1" inkscape:window-width="1366" inkscape:window-x="-8" inkscape:window-y="-8" inkscape:zoom="1" objecttolerance="1" pagecolor="#ffffff" showgrid="false" units="px">
		</sodipodi:namedview>
	<g id="layer1" transform="translate(0,-1014.3622)" inkscape:groupmode="layer" inkscape:label="Capa 1">
		<g id="g54" transform="matrix(0.75171521,0,0,0.75171521,-29.362155,1011.2154)">
			<g id="g48">
			</g>
			<g id="g52">
			</g>
		</g>
	</g>
	<g>
		<path d="M72.8,1H16.7C8.3,1-0.2,17.3,0,24.5c0.2,4,2.6,6.4,5.6,6.4c1.6,0,57,0,58.5,0c7.2,0,15.8-14.8,15.9-23.1
			C80.2,3.8,77.9,1,72.8,1z M63.7,29.8c-5.6,0-57.9,0-57.9,0c-1.5,0-4.7-1.1-4.7-5.2C1.1,16.9,9.8,2.2,17,2.2c2.9,0,53.7,0,53.7,0
			l0,0h2.1c6-0.2,6.1,5.4,6.1,5.4C79.6,12.4,72.3,29.8,63.7,29.8z"/>
		<path class="st0" d="M26.4,9.5c-0.7,0-3.8,0-3.8,0l-2.9,3.9h5.4c1.8,0,3.1-1.4,3.3-2.4C28.7,10,27,9.5,26.4,9.5z"/>
		<path class="st0" d="M79,7.6c0,0-0.1-5.6-6.1-5.5h-2.1l0,0c0,0-50.8,0-53.7,0c-7.3,0.1-16,14.8-16,22.5c0,4.2,3.2,5.2,4.7,5.2
			c0,0,52.3,0,57.9,0C72.3,29.8,79.6,12.4,79,7.6z M31.3,21.3c-2.8,4.2-6.3,3.6-7.9,3.7c-1.6,0-17.2,0-17.2,0l9.2-18.4
			c0,0,14.6,0,16,0c1.3,0,4.7,1.3,4.5,3.7c0,0-0.1,4.4-6.7,5.5C29.5,16,33.6,17.8,31.3,21.3z M40.8,24.9h-8.5l8.2-13.5h5.1
			L40.8,24.9z M47.2,8.9c-0.7,1.1-2.3,1.6-3.5,1.4c-1.2-0.2-2-1.6-1.4-2.6c0.7-1.1,2.2-1.7,3.4-1.5C47,6.4,47.9,7.9,47.2,8.9z
			 M68.9,14.7h-3.5c0,0,2.4-5.1-2-5.1s-8.2,6.7-7.9,9.3c0.2,2.6,1.3,3.3,4,3.3s5.8-1.8,7.1-3.7l2.3,2c-0.7,0.9-4.2,4.9-11.9,4.9
			s-9.6-4.9-9.3-7.6C48.5,8,58.1,6.1,62.3,6.1S68,8.3,68,8.3l1-1.6h7.6L68.9,14.7z"/>
		<path class="st0" d="M22,16.5c-0.7,0-4.4,0-4.4,0l-3.8,5.3h5.9c2.4,0,4.2-2,4.2-3.6C23.8,16.7,22.8,16.5,22,16.5z"/>
		<path d="M29.2,15.7c6.6-1.1,6.7-5.5,6.7-5.5c0.2-2.4-3.1-3.7-4.5-3.7c-1.3,0-16,0-16,0L6.2,24.9c0,0,15.6,0,17.2,0
			c1.6,0,5.1,0.5,7.9-3.7C33.6,17.8,29.5,16,29.2,15.7z M19.6,21.8h-5.9l3.8-5.3c0,0,3.8,0,4.4,0c0.9,0,1.9,0.2,1.9,1.7
			C23.8,19.8,22,21.8,19.6,21.8z M28.4,11.1c-0.2,1.1-1.6,2.4-3.3,2.4h-5.4l2.9-3.9c0,0,3.3,0,3.8,0C27,9.5,28.7,10,28.4,11.1z"/>
		<polygon points="32.3,24.9 40.8,24.9 45.7,11.4 40.5,11.4 		"/>
		<path d="M45.8,6.2c-1.2-0.2-2.8,0.4-3.4,1.5c-0.7,1.1,0.1,2.4,1.4,2.6c1.2,0.2,2.9-0.3,3.4-1.4C47.9,7.9,47,6.4,45.8,6.2z"/>
		<path d="M68,8.3c0,0-1.6-2.2-5.7-2.2s-13.8,2-14.6,11.8c-0.2,2.6,1.6,7.6,9.3,7.6s11.3-4,11.9-4.9l-2.3-2
			c-1.3,1.9-4.4,3.7-7.1,3.7c-2.7,0-3.8-0.8-4-3.3c-0.2-2.6,3.5-9.3,7.9-9.3s2,5.1,2,5.1H69l7.6-7.9H69L68,8.3z"/>
	</g>
</g>
</svg>
