<svg xmlns="http://www.w3.org/2000/svg" width="500" height="115" viewBox="0 0 500 115">
  <metadata><?xpacket begin="﻿" id="W5M0MpCehiHzreSzNTczkc9d"?>
<x:xmpmeta xmlns:x="adobe:ns:meta/" x:xmptk="Adobe XMP Core 5.6-c142 79.160924, 2017/07/13-01:06:39        ">
   <rdf:RDF xmlns:rdf="http://www.w3.org/1999/02/22-rdf-syntax-ns#">
      <rdf:Description rdf:about=""/>
   </rdf:RDF>
</x:xmpmeta>
                                                                                                    
                                                                                                    
                                                                                                    
                                                                                                    
                                                                                                    
                                                                                                    
                                                                                                    
                                                                                                    
                                                                                                    
                                                                                                    
                                                                                                    
                                                                                                    
                                                                                                    
                                                                                                    
                                                                                                    
                                                                                                    
                                                                                                    
                                                                                                    
                                                                                                    
                                                                                                    
                           
<?xpacket end="w"?></metadata>
<defs>
    <style>
      .cls-1 {
        fill-rule: evenodd;
      }
    </style>
  </defs>
  <path id="Färgfyllning_1" data-name="Färgfyllning 1" class="cls-1" d="M316.693,0a14.7,14.7,0,0,1,5.669.628c5,2.1,9.607,8.721,6.457,15.846-1.5,3.39-4.762,5.372-8.819,6.276a10.831,10.831,0,0,1-5.512-.628c-4-1.493-8.81-5.784-7.4-11.924a17.012,17.012,0,0,1,.472-2.824A13.262,13.262,0,0,1,313.543.941ZM96.221,35.3L79.685,39.379c-0.634-2.815-2.4-5.479-3.779-7.688C72.38,26.03,68.2,21.7,61.26,19.454c-1.19-.386-2.16-0.313-3.465-0.628-1.79-.431-6-1.135-8.346-0.627l-5.984.784a33.915,33.915,0,0,0-8.346,3.138c-7.6,4.613-12.444,11.146-15.433,20.4-0.86,2.66-.945,5.609-1.575,8.472-0.3,1.373-.044,2.978-0.315,4.236a18.586,18.586,0,0,0,.157,6.119v2.667c0.6,2.72.691,5.736,1.417,8.158a58.41,58.41,0,0,0,1.575,5.648C24.77,87.085,30.974,93.124,40.63,96.644c3.286,1.2,10.251,2.6,14.961,1.569,2.619-.573,5.276-0.8,7.559-1.726,6.409-2.608,10.3-7.275,13.7-12.865,1-1.64,1.848-5.169,2.992-6.433,1.292,0.863,3.44.773,5.039,1.255a81.5,81.5,0,0,0,11.339,2.824,11.552,11.552,0,0,1-1.1,3.608,54.666,54.666,0,0,1-5.039,10.512c-4.96,7.807-11.537,12.913-20.63,16.63-3.133,1.281-6.386,1.351-10.079,2.2-3.142.719-9.232,1.075-12.6,0.313l-2.992-.157c-3.583-.847-7.228-1.21-10.394-2.51C18.73,105.845,8.159,95.622,2.992,80.171,1.759,76.484,1.424,72.469.472,68.4,0.051,66.6.389,64.619,0,62.913V56.794A58.245,58.245,0,0,1,1.89,41.105a75.648,75.648,0,0,1,3.15-10.041C11.2,17.09,22.983,7.6,38.74,3.138c2.566-.727,5.338-0.644,8.032-1.255h2.835c3.188-.681,9.952.227,12.6,0.941,2.54,0.686,4.831.8,7.087,1.726,9.6,3.922,16.24,9.429,21.417,17.729a50.025,50.025,0,0,1,4.409,9.413A12.723,12.723,0,0,1,96.221,35.3Zm300.315,78.288v-8.943h-0.157V104.8c-1.081,1.047-1.777,2.541-2.992,3.452a37.166,37.166,0,0,1-8.032,4.706c-2.456,1.007-8.321,2.468-11.653,1.726l-4.725-.157c-2.983-.688-6.039-0.966-8.661-2.039-8.677-3.552-14.387-9.724-17.953-18.356-1.037-2.512-1.308-5-2.047-7.845a49.449,49.449,0,0,1-1.1-12.08v-5.02c0.849-3.766.627-7.59,1.732-10.982,3.349-10.284,8.623-18.477,18.11-22.592,3.095-1.343,6.573-1.82,10.236-2.667l4.725-.157a13.521,13.521,0,0,1,5.039.157,38.256,38.256,0,0,1,11.5,4.707c2.1,1.322,4.688,2.791,5.827,5.02h0.157V1.883c1.357-.446,3.708-0.157,5.355-0.157h11.023c0.684,2.074.158,7.875,0.158,10.512V113.431c-1.356.447-3.707,0.157-5.354,0.157H396.535ZM154.016,49.577a13.949,13.949,0,0,1-2.677-1.255l-4.095-.941h-2.677c-6.586,0-10.554,3.423-13.386,7.217A38.6,38.6,0,0,0,124.567,68.4c-0.89,3.209-.674,6.763-1.417,10.2v4.707c-0.621,2.871-.158,6.868-0.158,10.041v20.239H106.614c-0.652-1.98-.157-5.379-0.157-7.688V34.045h16.535V47.067h0.158V46.91h0.157c3.6-7.594,11.27-11.968,20.473-14.12,2.993-.7,7.986.177,10.236,0.941,1.138,0.387,2.547.145,2.677,1.569-0.685,1.1-.424,2.87-0.788,4.236A51.873,51.873,0,0,0,154.016,49.577Zm78.267,28.711H175.748c-0.148,10.938,4.877,17.961,12.913,20.866a22.686,22.686,0,0,0,11.811.627,23.124,23.124,0,0,0,5.355-1.883,25.136,25.136,0,0,0,7.559-6.119c0.656-.882,2.461-4.608,3.307-4.864,1.1,0.947,2.98,1.124,4.409,1.726,2.991,1.26,6.324,2.371,9.292,3.765a0.542,0.542,0,0,1-.158.314c-0.714,2.683-2.98,5.1-4.409,7.217A32.235,32.235,0,0,1,209.921,112.8a58.111,58.111,0,0,1-6.771,1.568l-2.993.157a32.935,32.935,0,0,1-10.078,0c-2.737-.617-5.594-0.891-8.032-1.882-12.667-5.153-18.272-13.611-22.362-27.3-1.245-4.168-2.465-12.073-1.26-17.415,0.671-2.971.985-5.889,1.89-8.629,3.272-9.9,9.233-19.06,18.425-23.063a60.879,60.879,0,0,1,5.984-2.04c3.105-1,10.379-2.337,14.646-1.412,1.936,0.42,3.951.418,5.827,0.941a38.925,38.925,0,0,1,9.764,3.922c9.685,5.979,14.068,15.16,17.007,27.926C232.784,69.123,232.267,74.235,232.283,78.288Zm267.559,0H443.307c-0.135,9.623,4.585,17.568,11.181,20.4a27.283,27.283,0,0,0,4.252,1.255,21.564,21.564,0,0,0,9.921-.471c7.362-2.22,12.253-6.087,15.276-12.551l14.173,5.491c-5.238,9.141-10.71,17.18-21.575,20.709-2.682.872-5.7,0.933-8.661,1.569h-2.992c-3.815.808-9.718-.482-12.6-1.412-14.205-4.584-20.007-12.258-24.566-26.357-2.691-8.319-2.575-21.029.629-28.868,4.644-11.36,9.97-18.6,21.418-23.22,2.438-.985,5.282-1.269,8.031-1.883l3.78-.157c2.729-.58,8.867.256,11.181,0.941a40.918,40.918,0,0,1,10.079,4.079c9.3,5.825,13.82,15.116,16.693,27.456C500.4,69.022,499.826,74.039,499.842,78.288ZM234.961,34.045h16.85c0.182,1.973,1.155,3.941,1.732,5.648,1,2.97,1.726,5.964,2.677,8.786,2.959,8.773,5.135,17.734,8.032,26.357,1.35,4.018,2.326,8.05,3.622,11.924,0.457,1.366.469,3.149,1.26,4.236V90.682c0.788-1.106.791-2.845,1.26-4.236,0.952-2.823,1.674-5.806,2.677-8.786,3.23-9.6,5.918-19.728,9.134-29.338,1.219-3.645,2.137-7.33,3.307-10.825,0.207-.619.608-3.2,0.945-3.452h16.85V34.2c-0.98,1.358-1.113,3.523-1.732,5.177-1.506,4.021-2.558,8.285-4.095,12.394-5.142,13.748-9.035,28.293-14.173,42.046l-6.457,19.768H261.417v-0.157H261.26Q248.111,73.742,234.961,34.045Zm75.118,0h16.535v79.386H310.079V34.045ZM176.063,64.638H214.8V64.482a7.126,7.126,0,0,1-.315-1.726l-1.26-3.922a20.653,20.653,0,0,0-7.874-9.256c-3.369-2.038-10.821-3.16-15.748-1.569-6.481,2.093-9.972,6.414-12.441,12.551A12.229,12.229,0,0,0,176.063,64.638ZM374.646,47.381c-0.706.437-1.8,0.207-2.678,0.471a19.873,19.873,0,0,0-4.251,1.726c-4.96,3.015-8,7.9-9.922,13.963-0.7,2.222-.4,4.359-0.945,6.9a26.37,26.37,0,0,0,.315,9.57c0.393,1.694.289,3.02,0.788,4.55,1.928,5.92,4.891,10.183,9.764,13.179,2.043,1.257,6.948,3.361,10.866,2.51A33.371,33.371,0,0,0,384.252,99c5.543-2.311,9.07-7.125,11.339-12.708a43.726,43.726,0,0,0,1.574-6.589,31.71,31.71,0,0,0,0-10.668c-0.48-2.15-.327-3.906-0.945-5.8-2.159-6.646-5.917-12.159-12.126-14.748C381.525,47.407,378.315,47.362,374.646,47.381Zm68.976,17.258h38.74a19.043,19.043,0,0,0-12.756-16.316c-1.8-.649-6.162-1.561-8.976-0.941a31.072,31.072,0,0,0-4.882,1.1A19.951,19.951,0,0,0,443.622,64.638Z"/>
</svg>
