<svg xmlns="http://www.w3.org/2000/svg" width="500" height="308" viewBox="0 0 500 308">
  <metadata><?xpacket begin="﻿" id="W5M0MpCehiHzreSzNTczkc9d"?>
<x:xmpmeta xmlns:x="adobe:ns:meta/" x:xmptk="Adobe XMP Core 5.6-c142 79.160924, 2017/07/13-01:06:39        ">
   <rdf:RDF xmlns:rdf="http://www.w3.org/1999/02/22-rdf-syntax-ns#">
      <rdf:Description rdf:about=""/>
   </rdf:RDF>
</x:xmpmeta>
                                                                                                    
                                                                                                    
                                                                                                    
                                                                                                    
                                                                                                    
                                                                                                    
                                                                                                    
                                                                                                    
                                                                                                    
                                                                                                    
                                                                                                    
                                                                                                    
                                                                                                    
                                                                                                    
                                                                                                    
                                                                                                    
                                                                                                    
                                                                                                    
                                                                                                    
                                                                                                    
                           
<?xpacket end="w"?></metadata>
<defs>
    <style>
      .cls-1 {
        fill-rule: evenodd;
      }
    </style>
  </defs>
  <path id="Färgfyllning_1" data-name="Färgfyllning 1" class="cls-1" d="M228.778,0c40.728-.752,71.328,7.949,95.929,23.454,5.46,3.442,10.715,7.531,15.873,11.382,1.362,1.017,2.444,2.774,3.8,3.794a91,91,0,0,1,18.289,19.315c1.714,2.363,4.639,4.507,5.521,7.588H367.5c-2.242-1.359-6.546-.238-8.627-1.724-1.938-1.846-3.219-4.377-4.831-6.553-3.261-4.4-7.534-8.221-11.387-12.072l-4.486-4.829c-4.355-3.3-8.318-7.215-12.767-10.347A162.406,162.406,0,0,0,282.954,8.968c-3.316-1.1-6.081-1.123-9.662-2.069-7.985-2.11-17.321-2.757-27.26-2.759-3.022,0-6.86-.21-9.317.345h-4.486C224.671,6.208,216.836,6.13,209.8,8.278c-12.319,3.76-24.716,7.295-34.852,13.451a188.178,188.178,0,0,0-36.232,27.937L129.4,60.358c-1.305,1.809-2.446,4.862-4.486,5.863l-11.732,3.1V68.291c2.267-1.769,3.5-5.208,5.175-7.588,3.326-4.725,7.553-8.834,11.043-13.451,2.275-3.012,5.935-5.985,8.971-8.278,3.48-2.628,6.45-6.356,10.007-8.968,5.906-4.336,12.322-8.232,18.634-12.072,11.011-6.7,24.66-10.69,38.3-14.486L221.532,0.69C223.791,0.181,227.045,1.1,228.778,0Zm-17.6,54.5H197.032a5.62,5.62,0,0,0-.69-3.449,3.48,3.48,0,0,0-2.415-2.414c-2.275-1.827-6.873-.756-9.662-0.345-0.983,1.268-2.487,2.122-3.106,3.794-1.445,3.9-.371,17.185-0.345,22.419h7.592v8.968l-7.592.345c-0.013,18.871.331,38.881,0.345,58.289H166.322q-0.173-29.142-.345-58.289H158.73V74.5h7.247c-0.121-9.905-2.062-30.841,3.795-34.49,8.33-5.19,34.077-4.884,39.338,2.414C211.14,45.24,211.25,49.525,211.18,54.5Zm46.584-5.863h14.148v18.28c0,2.635-.34,6.22.345,8.278,2.072-.676,4.162-1.862,6.556-2.414,8.06-1.861,15.106,2.2,17.253,6.553,1.193,2.418.345,7.906,0.345,11.037l0.345,25.523H282.264V90.71c0-2.979.636-7.567-1.036-8.968-1.8-1.531-7.6-1.433-8.626.69-1.1,1.756-.345,6.817-0.345,9.312v24.143H258.109Q257.937,82.263,257.764,48.632ZM202.553,63.118c15.594-.408,16.257,18.449,2.416,21.384-7.329,1.554-14-7.849-11.042-14.831a12.451,12.451,0,0,1,5.866-5.863C200.722,63.42,201.817,63.581,202.553,63.118ZM339.545,96.228l-23.81.345a52.952,52.952,0,0,0,1.035,12.417,8.614,8.614,0,0,0,7.592.345c1.474-2.542,2.08-5.429,2.07-9.657h13.113c0.085,5.25-.3,9.993-2.416,13.107-3.785,5.564-21.253,6.685-28.985,3.449-7.219-3.021-7.247-13.528-7.247-23.8,0-4.528-.365-9.446,1.035-12.761,2.564-6.07,13.562-9.244,22.775-7.243,2.74,0.6,5.153-.2,7.246.69C339.5,76.344,339.7,85.29,339.545,96.228Zm-86.612-8.623H239.821a24.946,24.946,0,0,0-1.036-6.208c-3.969-2.686-5.031-2.086-7.936,1.035a21.377,21.377,0,0,0,.69,5.863c1.4,0.448,2.367,1.626,3.8,2.07l7.591,0.69c8.434,2.066,12.241,4.626,11.042,15.176-0.27,2.379-.613,4.3-1.725,5.863-3.524,4.947-21.76,6.615-29.331,3.449-4.988-2.086-7.15-7.056-6.211-14.141h13.113c-0.076,2.026-.156,4.384.69,5.518a3.54,3.54,0,0,0,3.45,2.76,2.666,2.666,0,0,0,2.761-.345c3.062-.924,3.116-4.182,2.761-7.588-1.3-.8-2.629-2.191-4.141-2.759-9.739-3.662-19.4,1.558-19.324-13.106l0.345-4.484a19.919,19.919,0,0,1,2.416-5.518c3.882-5.068,25.994-4.387,31.055-.69C252.817,77.373,253.045,82.277,252.933,87.606ZM377.5,92.435H364.734c0.116-3.209.864-10.051-1.38-11.037-3.847-2.138-3.45,4.034-3.451,7.243v26.9H345.756c-0.114-13.4-.332-28.118-0.345-42.078h12.422a6.39,6.39,0,0,0,1.035,3.1c6.28-3.669,7.185-4.724,15.873-2.414C377.655,79.074,377.515,84.434,377.5,92.435ZM315.735,88.3H325.4a47.827,47.827,0,0,0-.345-6.208l-2.071-1.725a15.147,15.147,0,0,0-6.211.69C315.878,82.933,315.7,85.188,315.735,88.3ZM54.175,85.536a11.741,11.741,0,0,0-.345-2.759c2.759-.433,5.13-1.8,7.592-2.414,1.686-.421,3.935.406,5.176,0.69,5.516,1.26,10.892,1.183,15.873,2.414,4.556,1.126,8.622.862,13.113,2.069,12.4,3.334,25.526,5.487,37.267,9.312,5.913,1.926,11.766,3.36,17.254,5.173,2.59,0.856,5.669.875,7.591,2.415,1.195,1.914.937,6.316,1.38,8.622H157.7c-2.107-1.584-5.242-1.759-7.937-2.759-6.3-2.336-12.872-3.952-19.668-6.208-8.476-2.814-18.049-5.1-26.915-7.588-4.3-1.2-8.053-1.192-12.423-2.414A206.639,206.639,0,0,0,54.175,85.536Zm157.35,30.7H197.032V86.916c5.539,0.836,8.815,2.127,14.148-.345v22.074C212.078,110.029,211.571,114.168,211.525,116.233ZM385.093,144.17c-0.381-16.738-4.018-29.6-7.246-42.768,2.354-1.575,3.778-4.866,6.556-5.863l4.486,13.451c3.545,10.854,4.712,23.545,4.831,37.25h-0.345C391.615,145.014,387.424,144.467,385.093,144.17ZM207.039,123.476c5.671-.159,8.413,2.566,12.078,4.484,7.536,3.944,14.791,7.739,21.739,12.071,2.431,1.516,8.526,3.823,9.662,6.209H237.405c-2.465,1.634-9.186-3.144-11.042-4.139-7.3-3.918-14.937-8.161-22.429-12.072-3.263-1.7-8.13-2.681-10.7-5.173Zm97.654,30.7v7.588H282.954L282.264,169h22.084L304,176.936l-22.775-.345c-0.3,2.78-.963,5.211-1.035,8.278H304v8.278H260.179c0.105-4.558,1.672-9.189,2.761-13.107,0.972-3.5.74-6.489,1.725-10a121.085,121.085,0,0,0,3.451-15.521Zm17.253,0h29.676c5.207,0,10.722-.408,13.8,1.725,2.259,1.564,4.3,7.8,5.521,10.692,1.29,3.056,3.235,6.081,2.416,10.347-6.241,3.882-21.169,2.095-30.711,2.07q1.38,7.242,2.761,14.486H327.467v-0.345h-0.345Q324.535,173.662,321.946,154.172Zm48.654,0h36.232q2.415,3.795,4.831,7.588H390.269v0.69c0.878,1.14,2.26,5.962,3.106,6.553h23.119c1.55,2.65,4.277,4.818,5.176,7.933H398.206v0.69c1.183,1.2,3.177,6.723,4.14,7.243h26.57c1.575,3.189,4.831,5.459,5.867,8.968h-0.345c-1.731-1.074-10.3-.345-13.113-0.345H387.509Zm43.824,0h17.6l27.26,15.521q-6.9-7.76-13.8-15.521h13.8c2.529,3.783,9.707,9.929,13.458,12.762l5.866,6.208c4.31,3.257,7.938,7.259,11.732,11.037,2.122,2.113,9.1,7.187,10.007,9.658h-20.7L446.17,174.522v0.345c3.64,3.46,6.645,8.012,9.662,12.071,1.66,2.235,4.529,4.074,5.521,6.9H443.409c-2.383-4.1-5.938-7.575-8.626-11.382-4.765-6.748-9.39-13.252-14.148-20.005C418.7,159.7,416.045,157.273,414.424,154.172Zm-356.453.345c9.057-.133,18.75.281,27.26,0.345,3.966,0.03,9.331-.565,10.7,2.07,0.386,0.508.72,1.052,0.345,1.379-1.314,2-9.858,8.711-12.077,9.658H68.323v-0.345h0.345c1.2-1.5,2.719-1.707,3.106-4.139-4.25-2.818-17.1-3.415-18.979,2.069a1.759,1.759,0,0,0-.345,1.035c1.813,0.579,3.091,2.335,4.831,3.1,4.039,1.784,12.676,2.345,12.767,7.933-1.142.806-1.785,2.13-2.76,3.1L59.7,186.938c-6.244,3.939-12.541,3.942-21.049,5.864H32.436a41.739,41.739,0,0,1-13.8,0H10.352c-3.86-.875-8.779-1.374-10.007-4.829A5.454,5.454,0,0,1,0,185.214c2.826-2.019,5.843-3.581,8.972-5.519,1.01-.625,2.27-2.033,3.451-2.414h17.6v0.345H29.676c-1.729,1.749-4.3,2.565-4.831,5.518a5.181,5.181,0,0,0,1.38.69c1.676,1.344,6.579,1.244,8.972.69,5.521-1.277,13.88-1.966,14.148-7.933-3.863-2.277-15.523-5.741-16.218-10.347a49.556,49.556,0,0,1,14.493-9.657C50.184,155.554,55.85,155.884,57.971,154.517Zm52.105,0h34.852c4.353,0,10.441-.654,11.732,2.415a3.737,3.737,0,0,1,.345,2.069c-6.234,4.142-9.492,12.586-16.563,16.9-7,4.27-27.521,2.42-39.338,2.415-2.144,3.225-7.835,6.909-11.042,9.312-1.755,1.316-3.528,4.3-5.521,5.174H78.675c-1.7-1.093-14.022-.451-16.218,0v-0.69c1.607-.551,2.256-1.873,3.451-2.759,4.045-3,7.768-6.373,11.732-9.313C85.1,174.505,92,168.27,99.379,162.795,102.956,160.143,107.069,157.745,110.076,154.517Zm89.372,0q-2.243,19.314-4.486,38.63l-16.908-.345,1.725-7.933H155.97c-1.215,1.549-3.113,2.022-4.831,3.1-2.084,1.312-4.529,4.025-6.9,4.829H122.843v-0.69c3.879-1.169,9.994-6.65,13.458-8.968,10.019-6.7,20.007-13,30.021-19.659q5.1-3.393,10.352-6.9c0.7-.466,1.655-1.756,2.415-2.07h20.359Zm40.718,24.489h14.492c-0.076,4.075-1.521,7.452-2.415,10.692-8.144,4.985-24.549,3.449-37.612,3.449-6.186,0-13.018.094-14.493-4.484-1.374-4.267,4.108-10.837,5.521-13.106,2.878-4.622,5.488-9.313,8.282-13.8,1.045-1.678,1.509-3.753,3.1-4.828,3.367-2.27,8.573-2.414,14.148-2.415h19.669c3.84,0,7.385-.143,8.626,2.415,1.62,1.723.555,9.573-1.035,10.692h-13.8v-0.69c0.98-1.186.556-2.5,0-3.794-3.969-2.374-9.087-1.96-13.8-.69-2.357,3.743-4.024,7.85-6.211,12.072-1.27,2.451-3.212,4.518-3.451,7.933C226.1,185.7,239.192,186.014,240.166,179.006ZM121.118,161.76c-2.285,3.427-6.665,5.241-8.972,8.623h2.761c1.229,0.831,3.9.111,5.176,0,5.733-.5,12.575-1.361,12.767-6.9a5.179,5.179,0,0,0-1.38-.69C129.48,161.256,124.543,161.713,121.118,161.76Zm219.462,8.623c4.842,0.053,10.3.12,14.147-.69v-1.035c0.465-.884-0.631-2.188-1.035-3.1-0.527-1.2-.411-2.424-1.38-3.1-2.414-1.692-10.067-.809-13.8-0.69V162.1C339.745,163.867,340.394,167.929,340.58,170.383Zm-156.315-7.588c-2.034,2.965-6.081,5.086-8.972,7.243-2.679,2-4.854,4.949-7.936,6.553v0.345H174.6c1.029,0.676,3.892.39,5.521,0.345l4.831-14.486h-0.69Zm191.856,31.386c1.656,1.119,5.872,6.632,6.557,8.623q-3.278,6.9-6.557,13.8c-4.348,7.142-8.906,14.087-13.8,20.695A97.9,97.9,0,0,1,353,247.642c-1.434,1.433-3.649,2.494-4.141,4.828,2.355,2.686,3.007,7.2,4.486,10.692,3,7.083,6.428,14.8,8.627,22.419,1.177,4.078.89,10.174-1.035,13.107-0.88,1.339-2.149,1.8-3.451,2.759-1.135.838-1.433,2.462-2.416,3.449-1.653,1.661-6.682,4.23-10.7,3.1-2.941-.825-6.514-2.054-9.316-3.1-2.614-.979-7.769-1.472-8.972-3.794,2.439-1.644,4.074-5.555,7.246-6.208,1.09,0.866,2.333.782,3.8,1.379,3.333,1.36,13.839,6.014,17.253,3.449,1.886-2.557.237-9.246-.69-11.726-3.644-9.753-7.578-20.479-12.077-29.662-3.058,1.738-5.466,4.565-8.282,6.553-4.313,3.045-8.99,5.882-13.457,8.623-12.408,7.611-27.2,11.791-42.788,16.21-6.049,1.714-12,.946-18.634,2.414-8.488,1.878-24.984,1.191-32.781-.689l-6.9-.69c-8.8-2.279-18.76-3.658-26.225-7.243l1.035-2.759h0.345c1.372,1.059,3.372,1.063,5.176,1.724,5.1,1.868,11.039,3.094,16.908,4.484l7.937,0.69c7.977,1.7,22.415,1.778,30.365,0,6.058-1.355,11.337-.849,16.909-2.415,17.026-4.786,31.656-10.4,44.858-18.625,5.491-3.421,10.216-6.994,15.183-10.692,2.083-1.55,5.639-3.257,6.556-5.863-1.362-1.455-1.668-3.383-2.76-5.174-2.331-3.82-4.635-7.978-7.247-11.726-4.118-5.911-8.782-11.489-13.112-17.246-1.732-2.3-4.232-4.085-5.866-6.553,1.927-2.192,2.883-6.263,4.14-8.967h0.691c2.654,4.283,7.028,7.4,10.006,11.382,7.547,10.08,15.339,20.226,21.049,32.076h0.346V243.5c4.012-2.736,7.112-7.818,10.006-11.727s6.326-7.879,8.972-12.072c2.581-4.089,4.267-8.355,6.556-12.761C372.532,203.224,375.366,198.821,376.121,194.181Z"/>
</svg>
