<?xml version="1.0" encoding="UTF-8" standalone="no"?>
<!-- Created with Inkscape (http://www.inkscape.org/) by Marsupilami -->
<svg
   xmlns:svg="http://www.w3.org/2000/svg"
   xmlns="http://www.w3.org/2000/svg"
   version="1.0"
   width="1024"
   height="235"
   viewBox="0 0 128.455 29.5275"
   id="svg2723">
  <defs
     id="defs2725" />
  <g
     transform="translate(-310.7725,-517.59843)"
     id="layer1">
    <path
       d="M 349.45125,524.80218 L 349.1675,524.75468 C 348.93,525.22843 348.8825,525.37093 348.5975,525.84468 L 348.26625,526.46093 L 345.1375,532.10093 L 344.475,533.28593 L 343.905,534.32968 L 349.925,534.32968 L 349.45125,524.80218 z M 322.67,517.59843 L 333.24,517.59843 L 324.945,538.16718 C 324.70875,538.73593 324.61375,538.92593 324.23375,539.44593 L 324.32875,539.58968 C 324.8975,539.54218 325.04,539.49468 325.23,539.49468 L 330.9175,539.49468 C 331.34375,538.68968 331.48625,538.49843 331.9125,537.78968 L 344.90125,517.59843 L 356.9875,517.59843 L 359.07375,538.11968 L 359.21625,540.44218 L 359.31125,541.43718 L 359.69,541.43718 C 360.11625,539.73093 360.3525,539.01968 360.78,537.88218 L 368.8375,517.59843 L 383.6275,517.59843 L 382.39375,530.44218 L 382.3,531.76968 L 382.15625,533.33218 L 382.49,533.37968 C 383.3425,531.81593 383.72125,531.19968 384.24375,530.34718 L 392.585,517.59843 L 415.4325,517.59843 L 417.28,525.56093 C 417.47,526.31843 417.565,526.74593 417.66,527.74093 L 417.8975,527.74093 C 418.56,526.74593 418.7975,526.41343 419.65,525.46593 L 426.95125,517.59843 L 439.2275,517.59843 L 420.03,536.46093 L 415.76375,547.12593 L 405.715,547.12593 L 410.6925,534.51718 L 408.2275,524.61218 C 408.08625,523.94843 407.98875,523.52218 407.84875,522.28968 L 407.65875,522.33718 L 406.71125,524.99093 L 405.90625,527.17218 L 397.895,547.12593 L 388.22375,547.12593 L 394.86125,530.86843 C 395.57125,529.11468 395.66625,528.92468 396.33,527.74093 L 395.715,527.59843 L 395.0025,528.68843 L 394.15,529.92093 L 381.7775,547.12593 L 373.10375,547.12593 L 374.47875,530.20593 C 374.52625,529.39968 374.5725,528.87718 374.715,527.64593 L 374.24125,527.64593 C 373.625,529.54093 373.34125,530.34718 372.82,531.62718 L 366.8475,547.12593 L 350.63625,547.12593 L 350.30375,542.38593 L 350.21,540.96218 L 340.3975,540.96218 L 336.9375,547.12593 L 310.7725,547.12593 L 322.67,517.59843 z "
       style="fill:#000000;fill-opacity:1;fill-rule:nonzero;stroke:none"
       id="path2845" />
  </g>
</svg>
