<svg xmlns="http://www.w3.org/2000/svg" width="500" height="55" viewBox="0 0 500 55">
  <metadata><?xpacket begin="﻿" id="W5M0MpCehiHzreSzNTczkc9d"?>
<x:xmpmeta xmlns:x="adobe:ns:meta/" x:xmptk="Adobe XMP Core 5.6-c142 79.160924, 2017/07/13-01:06:39        ">
   <rdf:RDF xmlns:rdf="http://www.w3.org/1999/02/22-rdf-syntax-ns#">
      <rdf:Description rdf:about=""/>
   </rdf:RDF>
</x:xmpmeta>
                                                                                                    
                                                                                                    
                                                                                                    
                                                                                                    
                                                                                                    
                                                                                                    
                                                                                                    
                                                                                                    
                                                                                                    
                                                                                                    
                                                                                                    
                                                                                                    
                                                                                                    
                                                                                                    
                                                                                                    
                                                                                                    
                                                                                                    
                                                                                                    
                                                                                                    
                                                                                                    
                           
<?xpacket end="w"?></metadata>
<defs>
    <style>
      .cls-1 {
        fill-rule: evenodd;
      }
    </style>
  </defs>
  <path id="Färgfyllning_1" data-name="Färgfyllning 1" class="cls-1" d="M427.6,0a24.687,24.687,0,0,1,5.3.1c7.552,1.773,11.264,4.9,14,11.458,1.265,3.031,2.006,8.415.8,12.156-2.385,7.4-7.407,13.1-11.4,19.031-1.872,2.78-3.759,5.519-5.6,8.27a36.069,36.069,0,0,1-2.2,3.388h-6.2V54.2a16.2,16.2,0,0,0,1.6-2.391c1.076-1.53,2.1-3.121,3.2-4.683,2.5-3.558,5.239-7.12,7.5-10.861h-0.2c-2.108,1.928-8.61.883-11,0-5.773-2.132-9.17-5.982-11.1-11.956-0.608-1.881-1.306-5.744-.7-8.37a28.566,28.566,0,0,1,1.2-4.583c1.751-4.175,4.875-7.972,9-9.764A29.33,29.33,0,0,1,425.7.3,8.034,8.034,0,0,0,427.6,0ZM142.3,22.219H130.7c0.061-4.5-.91-9.144-3.7-10.86a8.028,8.028,0,0,0-2.7-.7,6.073,6.073,0,0,0-2.4,0,9.059,9.059,0,0,0-2.3.9c-2.739,1.7-3.81,5.108-4.7,8.668-0.352,1.41-.075,2.751-0.4,4.284a25.434,25.434,0,0,0-.1,4.583c0,4.317.673,8.395,2.3,11.159a9.315,9.315,0,0,0,2.2,2.989,9.251,9.251,0,0,0,2.3,1.2,7.467,7.467,0,0,0,4.9-.3c3.351-1.432,4.6-5.869,4.6-10.562h11.6c0,10.532-4.825,17.155-12.4,20.226a19.883,19.883,0,0,1-10.6,1.1,27.267,27.267,0,0,1-4.6-1.3c-6.122-2.643-8.992-8.356-10.9-15.245-0.461-1.663-.425-3.461-0.8-5.181v-1.2a27.938,27.938,0,0,1,0-8.668q0.049-1.1.1-2.192c0.47-2.088.564-4.231,1.2-6.177,1.807-5.532,4.434-9.788,9-12.554A19.815,19.815,0,0,1,118.7.5a21.076,21.076,0,0,1,11.6,1.1C138.03,4.821,142.255,11.376,142.3,22.219ZM392.3,0.8H407V54.4h-5.4V5.779h-9.3V0.8Zm56.4,0h14.7V54.4h-5.5V5.779h-9.2V0.8Zm20.2,0H500V5.879a25.37,25.37,0,0,1-1.4,2.89c-1.328,3-2.705,5.938-4,8.868-3.845,8.7-7.887,17.278-11.7,25.906-1.195,2.7-2.439,5.342-3.6,7.971a17.4,17.4,0,0,1-1.2,2.889h-5.8V54.2a6.331,6.331,0,0,0,.7-1.594c0.473-1.065,1-2.149,1.5-3.288,1.551-3.5,3.219-6.991,4.8-10.562,3.278-7.4,6.8-14.741,10.1-22.219,1.089-2.466,2.282-4.935,3.4-7.473a20.239,20.239,0,0,0,1.5-3.288H468.9V0.8ZM0,1.1H11.2V43.841H25.5V54.2H0V1.1Zm30.1,0H56.6V11.458H41.3v9.665H56.6V31.486H41.3V43.841H56.6V54.2H30.1V1.1Zm32.1,0H73.5v28.8c0,3.787-.562,9.876.9,12.255a6.98,6.98,0,0,0,6.9,2.591c1.815-.4,3.386-0.729,4.3-1.993,1.872-2.586,1.3-8.184,1.3-12.554V1.1H98.2V30.489c0,5.667.4,11.935-1.3,15.942-1.646,3.874-4.512,5.984-8.6,7.473a34.734,34.734,0,0,1-4.1,1l-2.5.1a9.11,9.11,0,0,1-3,.1c-1.6-.344-3.3-0.185-4.8-0.6-4.218-1.163-7.454-2.975-9.5-6.277-2.439-3.938-2.2-10.195-2.2-16.639V1.1Zm85.5,0h11.2V21.123h13.2V1.1h11.3V54.2H172.1V31.486H158.9V54.2H147.7V1.1Zm39.9,0h29.5V11.458H208V54.2H196.7V11.458h-9.1V1.1Zm33.8,0h29.5V11.458h-9.2V54.2H230.5V11.458h-9.1V1.1Zm33.7,0h11.3v28.8c0,3.787-.562,9.876.9,12.255a6.98,6.98,0,0,0,6.9,2.591c1.823-.4,3.378-0.727,4.3-1.993,1.876-2.578,1.3-8.183,1.3-12.554V1.1h11.3V30.489c0,5.664.4,11.935-1.3,15.942-1.646,3.874-4.512,5.984-8.6,7.473a34.734,34.734,0,0,1-4.1,1l-2.5.1a9.11,9.11,0,0,1-3,.1c-1.6-.344-3.3-0.185-4.8-0.6-4.218-1.163-7.454-2.975-9.5-6.277-2.439-3.938-2.2-10.195-2.2-16.639V1.1Zm41.6,0h13.5c2.326,0,5.079-.294,7.1.2a18.431,18.431,0,0,1,5.3,1.993,17.057,17.057,0,0,1,7,9.466c0.416,1.289.278,2.5,0.6,3.986a13.14,13.14,0,0,1-.3,5.48,18.963,18.963,0,0,1-2,4.982,12.468,12.468,0,0,1-5.4,4.783c-0.779.335-2.583,0.5-3.2,0.9a6.024,6.024,0,0,1,1,1.594c0.994,1.57,1.981,3.172,3,4.783,2.042,3.227,4.035,6.495,6.1,9.765,1.072,1.7,2.372,3.36,3.3,5.181H319.8c-1.641-3.014-3.415-6.062-5.2-8.967-1.046-1.7-1.756-3.48-2.8-5.181-0.865-1.41-1.61-2.931-2.5-4.384a9,9,0,0,1-1.2-2.092H308V54.2H296.7V1.1Zm40.5,0h16a14.7,14.7,0,0,0,.8,3.687c0.525,1.839.7,3.735,1.2,5.48q0.349,1.843.7,3.687c1.174,4.118,1.733,8.631,2.9,12.754,0.652,2.3.9,4.66,1.5,6.875,0.265,0.974.161,2.344,0.7,3.089a27.864,27.864,0,0,1,1.1-4.882c0.611-2.136.823-4.345,1.4-6.377,0.326-1.148.274-2.14,0.6-3.288,0.955-3.364,1.442-7.092,2.4-10.462q0.25-1.395.5-2.79c0.409-1.449.562-3.026,1-4.583a14.54,14.54,0,0,0,.7-3.188h16V54.2h-9.9V16.141c0-.81.261-2.508-0.1-3.089a12.858,12.858,0,0,1-.7,2.89c-0.656,2.28-.976,4.6-1.6,6.775-0.386,1.345-.414,2.541-0.8,3.886-1.177,4.1-1.928,8.554-3.1,12.654-0.348,1.217-.354,2.275-0.7,3.487-0.621,2.178-.952,4.492-1.6,6.775a22.005,22.005,0,0,0-1.1,4.683h-8.2V54.1h-0.1a18.994,18.994,0,0,0-1-4.185c-0.654-2.281-.978-4.6-1.6-6.775-0.347-1.216-.353-2.275-0.7-3.487-1.455-5.076-2.265-10.582-3.8-15.643-0.815-2.686-1.115-5.469-1.9-8.071-0.273-.9-0.17-2.21-0.7-2.889V54.2h-9.9V1.1Zm91.6,3.786a6.694,6.694,0,0,1-1.5.2,20,20,0,0,0-2.8.9,13.312,13.312,0,0,0-6.7,7.373c-0.58,1.425-.432,2.76-0.8,4.484a10.322,10.322,0,0,0,.5,4.683c1.29,4.229,3.449,7.114,7.3,8.768,1.331,0.572,4.034,1.595,6.3,1.1,5.693-1.253,8.934-3.865,10.9-8.768a15.484,15.484,0,0,0-.3-10.362C439.555,8.188,436.076,4.853,428.8,4.882ZM308,11.458V24.511c5.5,0.067,8.823.069,10.3-3.985a7.8,7.8,0,0,0,.4-3.886,8.545,8.545,0,0,0-1-2.69C315.979,11.427,312.341,11.412,308,11.458Z"/>
</svg>
