<svg xmlns="http://www.w3.org/2000/svg" viewBox="0 0 283.46 53.18"><title>logo</title><path d="M37.42,5.88Q32.63,2.37,23.76,2.36h-22V53.64h8.93v-22H23.84q8.64,0,13.51-3.62t4.87-11.32Q42.22,9.4,37.42,5.88ZM31,22.36q-2.31,1.76-7.14,1.76H10.65V9.91H23.84q4.83,0,7.14,1.61c1.54,1.07,2.3,2.86,2.3,5.35S32.52,21.19,31,22.36Z" transform="translate(-1.72 -1.41)"/><path d="M71.67,21.7A14.34,14.34,0,0,0,66.39,18a18.17,18.17,0,0,0-6.88-1.25,17.34,17.34,0,0,0-7.4,1.5,16.35,16.35,0,0,0-5.46,4.07,17.66,17.66,0,0,0-3.4,6,22.29,22.29,0,0,0-1.18,7.32A21.42,21.42,0,0,0,43.32,43a18.31,18.31,0,0,0,3.52,6,16.4,16.4,0,0,0,5.53,4.07,17,17,0,0,0,7.21,1.5,17.69,17.69,0,0,0,5.86-1A15.18,15.18,0,0,0,70.2,51a15.66,15.66,0,0,0,3.44-4,16.2,16.2,0,0,0,2-5H67.27q-1.9,5.56-7.91,5.56a7.87,7.87,0,0,1-6-2.62A11,11,0,0,1,50.57,38H76.13c.05-.53.08-1,.08-1.28v-1A25.55,25.55,0,0,0,75,27.67,16.37,16.37,0,0,0,71.67,21.7ZM50.72,32a8.68,8.68,0,0,1,.55-3,8,8,0,0,1,1.64-2.71,8.35,8.35,0,0,1,2.68-1.94,8.66,8.66,0,0,1,3.7-.73,8.48,8.48,0,0,1,3.62.73,8.2,8.2,0,0,1,2.64,1.9A8.06,8.06,0,0,1,67.16,29,9,9,0,0,1,67.71,32Z" transform="translate(-1.72 -1.41)"/><path d="M107.12,19.83a10.32,10.32,0,0,0-3.85-2.23,15.27,15.27,0,0,0-4.8-.73,14.43,14.43,0,0,0-3.37.4A14.83,14.83,0,0,0,92,18.37a10.08,10.08,0,0,0-2.49,1.68A5.64,5.64,0,0,0,88,22.21V17.75H79.65V53.64h8.42v-21a10.88,10.88,0,0,1,.66-4,7.91,7.91,0,0,1,1.83-2.82,8.13,8.13,0,0,1,2.64-1.72,8.44,8.44,0,0,1,3.15-.58,5.12,5.12,0,0,1,4.32,1.9,6.89,6.89,0,0,1,1.47,4.32V53.64h8.42V29.1a14.79,14.79,0,0,0-.92-5.46A10.32,10.32,0,0,0,107.12,19.83Z" transform="translate(-1.72 -1.41)"/><path d="M164.4,27.92a15.7,15.7,0,0,0-4.88-2.53,51.16,51.16,0,0,0-5.67-1.47l-10-1.91A14.66,14.66,0,0,1,138.28,20a4.58,4.58,0,0,1-2.23-4A4.47,4.47,0,0,1,137,13.1a7.6,7.6,0,0,1,2.49-2A13.26,13.26,0,0,1,143,9.87a20.36,20.36,0,0,1,4.1-.4,13.51,13.51,0,0,1,4.17.66,17.45,17.45,0,0,1,3.85,1.76,18.58,18.58,0,0,1,3.3,2.56,15.06,15.06,0,0,1,2.45,3.08l7-5.35a17.87,17.87,0,0,0-3.19-4A23.81,23.81,0,0,0,160,4.75a25.39,25.39,0,0,0-6-2.43,26.14,26.14,0,0,0-7-.91,33,33,0,0,0-7,.77,19.11,19.11,0,0,0-6.35,2.6,14.26,14.26,0,0,0-4.69,4.8,12.83,12.83,0,0,0-1.78,6.7,12.12,12.12,0,0,0,1.54,6.41,14.12,14.12,0,0,0,3.7,4.1,16.57,16.57,0,0,0,4.47,2.35,30.42,30.42,0,0,0,3.92,1.06l11.2,2.12a16.52,16.52,0,0,1,6.12,2.27,4.74,4.74,0,0,1,2.09,4.1,6.66,6.66,0,0,1-3.26,6.05,15.65,15.65,0,0,1-8.32,2q-11.87,0-16.55-11.64l-7.25,4.76a17.88,17.88,0,0,0,3,5.53,23.07,23.07,0,0,0,4.57,4.35,25.39,25.39,0,0,0,7.33,3.59,28.32,28.32,0,0,0,8.42,1.25,33.84,33.84,0,0,0,9-1.1A17.31,17.31,0,0,0,163.78,50a15.48,15.48,0,0,0,3.78-4.95,14.55,14.55,0,0,0,1.52-6.57,14.25,14.25,0,0,0-1.28-6.42A12.24,12.24,0,0,0,164.4,27.92Z" transform="translate(-1.72 -1.41)"/><path d="M183.29,6.39l-8.42.08V17.75h-5.64v7.1h5.64V45.58a9.14,9.14,0,0,0,.29,2.64,6.57,6.57,0,0,0,1.91,3.4,9,9,0,0,0,3.37,1.94,13.5,13.5,0,0,0,4.32.66h4.68V46.75c-2.18,0-3.77.2-4.72-.44a3.13,3.13,0,0,1-1.43-2.78V24.85h6.59v-7.1h-6.59Z" transform="translate(-1.72 -1.41)"/><path d="M222.26,22.36a17.84,17.84,0,0,0-5.82-4.07,19.93,19.93,0,0,0-15.17,0,17.36,17.36,0,0,0-5.78,4.07,17.94,17.94,0,0,0-3.67,6,21.6,21.6,0,0,0,0,14.65,18,18,0,0,0,3.67,6,17.22,17.22,0,0,0,5.78,4.07,19.93,19.93,0,0,0,15.17,0A17.69,17.69,0,0,0,222.26,49,18.14,18.14,0,0,0,226,43a21,21,0,0,0,0-14.65A18.08,18.08,0,0,0,222.26,22.36Zm-4,17.69a10.94,10.94,0,0,1-1.91,3.7,9.85,9.85,0,0,1-3.15,2.6,9.36,9.36,0,0,1-11.79-2.6,11.54,11.54,0,0,1-1.83-3.7,15,15,0,0,1-.62-4.36,15.32,15.32,0,0,1,.62-4.39,11.86,11.86,0,0,1,1.83-3.78,8.9,8.9,0,0,1,7.43-3.62,9.17,9.17,0,0,1,4.36,1,9.68,9.68,0,0,1,3.15,2.63,11.23,11.23,0,0,1,1.91,3.78,15.68,15.68,0,0,1,.62,4.39A15.37,15.37,0,0,1,218.27,40.05Z" transform="translate(-1.72 -1.41)"/><path d="M247.31,16.94A9.15,9.15,0,0,0,242.77,18a12.84,12.84,0,0,0-3.59,3.11V17.6h-8.35v36h8.42V33.13a10.25,10.25,0,0,1,.59-3.66,7.4,7.4,0,0,1,1.53-2.53,6.08,6.08,0,0,1,2.2-1.47,7.31,7.31,0,0,1,2.57-.47,8.2,8.2,0,0,1,3.86.8V17.23A13.59,13.59,0,0,0,247.31,16.94Z" transform="translate(-1.72 -1.41)"/><path d="M284,27.67a16.38,16.38,0,0,0-3.37-6A14.31,14.31,0,0,0,275.37,18a18.22,18.22,0,0,0-6.89-1.25,17.37,17.37,0,0,0-7.4,1.5,16.21,16.21,0,0,0-5.45,4.07,17.68,17.68,0,0,0-3.41,6,22.55,22.55,0,0,0-1.17,7.32A21.41,21.41,0,0,0,252.29,43a18.31,18.31,0,0,0,3.52,6,16.5,16.5,0,0,0,5.53,4.07,17,17,0,0,0,7.21,1.5,17.65,17.65,0,0,0,5.86-1A15.07,15.07,0,0,0,279.17,51a15.89,15.89,0,0,0,3.45-4,16.43,16.43,0,0,0,2-5h-8.35q-1.9,5.56-7.91,5.56a7.87,7.87,0,0,1-6-2.62A11.1,11.1,0,0,1,259.54,38h25.57c.05-.53.07-1,.07-1.28v-1A25.85,25.85,0,0,0,284,27.67ZM259.69,32a8.68,8.68,0,0,1,.55-3,8.24,8.24,0,0,1,4.32-4.65,8.66,8.66,0,0,1,3.7-.73,8.49,8.49,0,0,1,3.63.73,8.05,8.05,0,0,1,2.63,1.9A7.9,7.9,0,0,1,276.13,29a9,9,0,0,1,.55,3.08Z" transform="translate(-1.72 -1.41)"/></svg>