<?xml version="1.0" encoding="UTF-8"?>
<svg width="157px" height="97px" viewBox="0 0 157 97" version="1.1" xmlns="http://www.w3.org/2000/svg" xmlns:xlink="http://www.w3.org/1999/xlink">
    <!-- Generator: Sketch 60 (88103) - https://sketch.com -->
    <title>XMLID_12_</title>
    <desc>Created with Sketch.</desc>
    <g id="Page-1" stroke="none" stroke-width="1" fill="none" fill-rule="evenodd">
        <g id="XMLID_12_" transform="translate(0.000000, -1.000000)" fill-rule="nonzero">
            <rect id="Rectangle-path" fill="#7E72B3" x="57.245" y="11.294" width="42.149" height="75.752"></rect>
            <path d="M59.925,49.17 C59.925,33.804 67.122,20.113 78.325,11.294 C70.131,4.841 59.791,0.991 48.547,0.991 C21.941,0.991 0.372,22.563 0.372,49.17 C0.372,75.791 21.941,97.351 48.547,97.351 C59.792,97.351 70.131,93.506 78.325,87.045 C67.122,78.229 59.925,64.537 59.925,49.17 Z" id="XMLID_16_" fill="#E10814"></path>
            <path d="M151.686,79.029 L151.686,77.475 L152.31,77.475 L152.31,77.158 L150.718,77.158 L150.718,77.475 L151.343,77.475 L151.343,79.029 L151.686,79.029 Z M154.773,79.029 L154.773,77.156 L154.279,77.156 L153.726,78.442 L153.156,77.156 L152.668,77.156 L152.668,79.029 L153.023,79.029 L153.023,77.623 L153.548,78.828 L153.899,78.828 L154.429,77.621 L154.429,79.029 L154.773,79.029 Z" id="Shape" fill="#229FDA"></path>
            <path d="M156.277,49.17 C156.277,75.791 134.713,97.351 108.093,97.351 C96.858,97.351 86.528,93.506 78.324,87.045 C89.537,78.228 96.733,64.536 96.733,49.17 C96.733,33.804 89.537,20.113 78.324,11.294 C86.527,4.841 96.857,0.991 108.093,0.991 C134.713,0.991 156.277,22.563 156.277,49.17 Z" id="Shape" fill="#229FDA"></path>
        </g>
    </g>
</svg>