<?xml version="1.0" encoding="UTF-8"?>
<svg width="117px" height="73px" viewBox="0 0 117 73" version="1.1" xmlns="http://www.w3.org/2000/svg" xmlns:xlink="http://www.w3.org/1999/xlink">
    <!-- Generator: Sketch 60 (88103) - https://sketch.com -->
    <title>_Group_</title>
    <desc>Created with Sketch.</desc>
    <g id="Page-1" stroke="none" stroke-width="1" fill="none" fill-rule="evenodd">
        <g id="_Group_" fill-rule="nonzero">
            <rect id="Rectangle-path" fill="#FF5F00" x="42.65" y="7.85" width="31.5" height="56.61"></rect>
            <path d="M44.65,36.16 C44.6382226,25.1114923 49.7088438,14.6715443 58.4,7.85 C43.6397903,-3.74994822 22.4435373,-2.06031545 9.70739789,11.7314698 C-3.02874153,25.5232551 -3.02874153,46.7867449 9.70739789,60.5785302 C22.4435373,74.3703154 43.6397903,76.0599482 58.4,64.46 C49.7116087,57.6406213 44.6412973,47.2049985 44.65,36.16 L44.65,36.16 Z" id="_Path_" fill="#EB001B"></path>
            <path d="M116.65,36.16 C116.65,49.9433804 108.779421,62.5166503 96.3817553,68.5398939 C83.9840897,74.5631374 69.2355898,72.9788948 58.4,64.46 C67.0846003,57.6348318 72.1552933,47.2005965 72.1552933,36.155 C72.1552933,25.1094035 67.0846003,14.6751682 58.4,7.85 C69.2355898,-0.668894825 83.9840897,-2.25313742 96.3817553,3.77010612 C108.779421,9.79334966 116.65,22.3666196 116.65,36.15 L116.65,36.16 Z" id="Shape" fill="#F79E1B"></path>
            <path d="M113.21,58.46 L113.21,57.3 L113.68,57.3 L113.68,57.06 L112.49,57.06 L112.49,57.3 L113,57.3 L113,58.46 L113.21,58.46 Z M115.52,58.46 L115.52,57.06 L115.16,57.06 L114.74,58.06 L114.32,57.06 L114,57.06 L114,58.46 L114.26,58.46 L114.26,57.41 L114.65,58.32 L114.92,58.32 L115.31,57.41 L115.31,58.47 L115.52,58.46 Z" id="Shape" fill="#F79E1B"></path>
        </g>
    </g>
</svg>