<?xml version="1.0" encoding="utf-8"?>
<!-- Generator: Adobe Illustrator 27.9.0, SVG Export Plug-In . SVG Version: 6.00 Build 0)  -->
<svg version="1.1" id="Lager_1" xmlns="http://www.w3.org/2000/svg" xmlns:xlink="http://www.w3.org/1999/xlink" x="0px" y="0px"
	 viewBox="0 0 1000 1000" style="enable-background:new 0 0 1000 1000;" xml:space="preserve">
<style type="text/css">
	.st0{fill:#FFD511;}
	.st1{fill:#FFE56D;}
	.st2{clip-path:url(#SVGID_00000159429673571412185930000002851377636301990306_);}
	.st3{clip-path:url(#SVGID_00000163044062970015568460000010724959367468772227_);}
</style>
<circle class="st0" cx="500" cy="500" r="500"/>
<g>
	<path class="st1" d="M0,500c0,115,38.9,221,104.2,305.5l103.7-31.2c29.4-8.8,51.9-32.7,58.9-62.6l102.1-433.3
		c7-29.9-2.4-61.3-24.8-82.3L224,83C89,172.5,0,325.9,0,500z"/>
</g>
<g>
	<path class="st1" d="M1000,500c0-16.8-0.8-33.5-2.5-49.9L643.9,443c-30.7-0.6-59.4,15.2-75.3,41.5l-230.3,381
		c-15.9,26.3-16.5,59.1-1.7,86l14.3,26C398,992.1,448.1,1000,500,1000C776.1,1000,1000,776.1,1000,500z"/>
</g>
<g>
	<g>
		<defs>
			<rect id="SVGID_1_" x="98.9" y="424.7" width="802.4" height="150.5"/>
		</defs>
		<clipPath id="SVGID_00000127035247367248608500000001796769929140406963_">
			<use xlink:href="#SVGID_1_"  style="overflow:visible;"/>
		</clipPath>
		<path style="clip-path:url(#SVGID_00000127035247367248608500000001796769929140406963_);" d="M181.6,484c-4.4,3.3-11.1,5-20.2,5
			h-37.3v-40.2h37.3c9.1,0,15.9,1.5,20.2,4.6c4.4,3,6.5,8.1,6.5,15.1C188.1,475.5,186,480.7,181.6,484L181.6,484z M199.9,437.4
			c-9.1-6.6-21.9-10-38.7-10H98.8v145.1h25.3v-62.2h37.3c16.3,0,29.1-3.4,38.3-10.3c9.2-6.8,13.8-17.5,13.8-32
			C213.4,454.2,208.9,444,199.9,437.4"/>
	</g>
	<path d="M237.5,511.4c0-2.9,0.5-5.8,1.6-8.6c1-2.8,2.6-5.4,4.7-7.7c2.1-2.3,4.6-4.1,7.6-5.5c3-1.4,6.5-2.1,10.5-2.1
		c3.9,0,7.3,0.7,10.3,2.1c3,1.4,5.5,3.2,7.5,5.4c2,2.2,3.5,4.8,4.6,7.7c1,2.9,1.6,5.8,1.6,8.7H237.5L237.5,511.4z M296.8,482.2
		c-4.1-4.6-9.1-8-14.9-10.4c-5.8-2.3-12.3-3.5-19.5-3.5c-7.9,0-14.9,1.4-20.9,4.3c-6.1,2.8-11.2,6.7-15.4,11.5
		c-4.2,4.8-7.4,10.5-9.6,17c-2.2,6.5-3.3,13.4-3.3,20.7c0,7.3,1.2,14.2,3.5,20.7c2.3,6.5,5.7,12.2,10,17c4.3,4.8,9.5,8.7,15.7,11.5
		c6.1,2.8,13,4.3,20.4,4.3c5.9,0,11.5-0.9,16.6-2.7c5.1-1.8,9.6-4.3,13.5-7.6c3.9-3.2,7.1-7.1,9.7-11.4c2.6-4.4,4.5-9.1,5.6-14.2
		h-23.6c-3.6,10.5-11.1,15.8-22.4,15.8c-6.6,0-12.3-2.5-16.9-7.4c-4.6-4.9-7.3-11.4-8-19.3h72.4c0.1-1.5,0.2-2.7,0.2-3.6
		c0-0.9,0-1.8,0-2.8c0-8.6-1.1-16.2-3.3-22.9C304.1,492.4,300.9,486.7,296.8,482.2"/>
	<g>
		<defs>
			<rect id="SVGID_00000041272114961213434320000005114302857686981049_" x="98.9" y="424.7" width="802.4" height="150.5"/>
		</defs>
		<clipPath id="SVGID_00000085968139083990114540000013136619943812611728_">
			<use xlink:href="#SVGID_00000041272114961213434320000005114302857686981049_"  style="overflow:visible;"/>
		</clipPath>
		<path style="clip-path:url(#SVGID_00000085968139083990114540000013136619943812611728_);" d="M397.2,476.9
			c-3-2.8-6.7-4.9-10.9-6.3c-4.2-1.4-8.7-2.1-13.6-2.1c-3.2,0-6.4,0.4-9.5,1.1c-3.2,0.8-6.1,1.8-8.8,3.1c-2.7,1.3-5,2.9-7,4.8
			c-2,1.9-3.4,3.9-4.2,6.1V471h-23.6v101.6h23.8v-59.3c0-4.3,0.6-8,1.9-11.2c1.2-3.2,3-5.8,5.2-8c2.2-2.1,4.7-3.8,7.5-4.9
			c2.8-1.1,5.7-1.7,8.9-1.7c5.4,0,9.5,1.8,12.2,5.4c2.8,3.6,4.1,7.7,4.1,12.2v67.4h23.8v-69.5c0-5.9-0.9-11.1-2.6-15.4
			C402.6,483.3,400.2,479.7,397.2,476.9"/>
		<path style="clip-path:url(#SVGID_00000085968139083990114540000013136619943812611728_);" d="M559.3,499.8
			c-4-3.1-8.6-5.5-13.8-7.2c-5.2-1.7-10.5-3-16.1-4.2l-28.4-5.4c-6.2-1.1-11.4-3-15.7-5.8c-4.2-2.8-6.3-6.6-6.3-11.4
			c0-3,0.9-5.7,2.7-8c1.8-2.3,4.1-4.2,7-5.7c2.9-1.5,6.2-2.7,9.9-3.4c3.7-0.8,7.6-1.1,11.6-1.1c4,0,7.9,0.6,11.8,1.9
			c3.9,1.2,7.5,2.9,10.9,5c3.4,2.1,6.5,4.5,9.3,7.3c2.8,2.8,5.1,5.7,6.9,8.7l19.7-15.1c-2.2-3.9-5.2-7.6-9-11.3
			c-3.8-3.6-8.2-6.9-13.3-9.8c-5-2.9-10.7-5.2-16.9-6.9c-6.2-1.7-12.9-2.6-19.9-2.6c-6.6,0-13.3,0.7-19.9,2.2
			c-6.6,1.5-12.6,3.9-18,7.4c-5.5,3.5-9.9,8-13.3,13.6c-3.4,5.6-5,11.9-5,19c0,7.3,1.4,13.4,4.4,18.1c2.9,4.8,6.4,8.6,10.5,11.6
			c4.1,3,8.3,5.2,12.7,6.6c4.4,1.5,8.1,2.5,11.1,3l31.7,6c7.6,1.5,13.4,3.7,17.3,6.4c3.9,2.8,5.9,6.6,5.9,11.6
			c0,7.6-3.1,13.3-9.2,17.1c-6.2,3.8-14,5.7-23.5,5.7c-22.4,0-38-11-46.9-33l-20.5,13.5c1.9,5.8,4.7,11,8.4,15.7
			c3.7,4.6,8,8.7,13,12.3c6.2,4.4,13.1,7.8,20.7,10.2c7.6,2.3,15.5,3.5,23.8,3.5c9.5,0,18-1,25.5-3.1c7.5-2.1,13.8-5.3,19-9.8
			c4.3-3.6,7.8-8.3,10.7-14c2.9-5.7,4.3-11.9,4.3-18.6c0-7.3-1.2-13.4-3.6-18.2C566.5,506.8,563.3,502.9,559.3,499.8"/>
	</g>
	<path d="M612.8,438.8l-23.8,0.2V471h-16v20.1h16v58.7c0,3.3,0.3,5.8,0.8,7.5c1,4,2.8,7.2,5.4,9.6c2.6,2.4,5.8,4.3,9.5,5.5
		c3.7,1.2,7.8,1.9,12.2,1.9c4.4,0,8.8,0,13.3,0v-21.1c-6.2,0-10.7,0.6-13.4-1.2c-2.7-1.8-4-4.4-4-7.9v-52.9h18.7V471h-18.7V438.8"/>
	<path d="M711.8,534.1c-1.2,3.9-3,7.4-5.4,10.5c-2.4,3-5.4,5.5-8.9,7.4c-3.5,1.9-7.6,2.8-12.3,2.8c-4.7,0-8.8-0.9-12.3-2.8
		c-3.5-1.9-6.4-4.3-8.7-7.4c-2.3-3-4-6.5-5.2-10.5c-1.2-3.9-1.8-8.1-1.8-12.3c0-4.3,0.6-8.4,1.8-12.4c1.2-4,2.9-7.6,5.2-10.7
		c2.3-3.1,5.2-5.6,8.7-7.5c3.5-1.9,7.6-2.8,12.3-2.8c4.7,0,8.8,0.9,12.3,2.8c3.5,1.9,6.5,4.4,8.9,7.5c2.4,3.1,4.2,6.7,5.4,10.7
		c1.2,4,1.8,8.2,1.8,12.4C713.6,526.1,713,530.2,711.8,534.1L711.8,534.1z M723.1,484c-4.6-4.8-10.1-8.7-16.5-11.5
		c-6.4-2.8-13.6-4.3-21.5-4.3c-7.9,0-15,1.4-21.5,4.3c-6.4,2.8-11.9,6.7-16.4,11.5c-4.5,4.8-8,10.5-10.4,17
		c-2.4,6.5-3.6,13.4-3.6,20.7c0,7.3,1.2,14.2,3.6,20.7c2.4,6.5,5.9,12.2,10.4,17c4.5,4.8,10,8.7,16.4,11.5
		c6.4,2.8,13.6,4.3,21.5,4.3c7.9,0,15-1.4,21.5-4.3c6.4-2.8,11.9-6.7,16.5-11.5c4.6-4.8,8.1-10.5,10.6-17c2.5-6.5,3.7-13.4,3.7-20.7
		c0-7.3-1.2-14.2-3.7-20.7C731.2,494.5,727.7,488.9,723.1,484"/>
	<path d="M794,468.7c-5,0-9.3,1-12.9,3c-3.6,2-7,4.9-10.2,8.8v-10h-23.6v102h23.8v-58.1c0-4,0.5-7.5,1.7-10.4
		c1.1-2.9,2.6-5.3,4.4-7.2c1.8-1.9,3.9-3.2,6.2-4.1c2.3-0.9,4.8-1.3,7.3-1.3c4.2,0,6.7,0.4,10.9,2.3v-24.3
		C799.1,469,796.6,468.7,794,468.7"/>
	<path d="M829.1,511.4c0-2.9,0.5-5.8,1.6-8.6c1-2.8,2.6-5.4,4.7-7.7c2.1-2.3,4.6-4.1,7.6-5.5c3-1.4,6.5-2.1,10.5-2.1
		c3.9,0,7.3,0.7,10.3,2.1c3,1.4,5.5,3.2,7.5,5.4c2,2.2,3.5,4.8,4.6,7.7c1,2.9,1.6,5.8,1.6,8.7H829.1L829.1,511.4z M897.9,499.1
		c-2.2-6.7-5.4-12.3-9.5-16.9c-4.1-4.6-9.1-8-14.9-10.4c-5.8-2.3-12.3-3.5-19.5-3.5c-7.9,0-14.9,1.4-20.9,4.3
		c-6.1,2.8-11.2,6.7-15.4,11.5c-4.2,4.8-7.4,10.5-9.6,17c-2.2,6.5-3.3,13.4-3.3,20.7c0,7.3,1.2,14.2,3.5,20.7
		c2.4,6.5,5.7,12.2,10,17c4.3,4.8,9.5,8.7,15.7,11.5c6.2,2.8,13,4.3,20.4,4.3c5.9,0,11.5-0.9,16.6-2.7c5.1-1.8,9.6-4.3,13.5-7.6
		c3.9-3.2,7.1-7.1,9.8-11.4c2.6-4.4,4.5-9.1,5.6-14.2h-23.6c-3.6,10.5-11.1,15.8-22.4,15.8c-6.6,0-12.3-2.5-16.9-7.4
		c-4.6-4.9-7.3-11.4-8-19.3H901c0.1-1.5,0.2-2.7,0.2-3.6c0-0.9,0-1.8,0-2.8C901.2,513.4,900.1,505.8,897.9,499.1"/>
</g>
</svg>
