<?xml version="1.0" encoding="utf-8"?>
<!-- Generator: Adobe Illustrator 25.2.1, SVG Export Plug-In . SVG Version: 6.00 Build 0)  -->
<svg version="1.1" id="Lager_1" xmlns="http://www.w3.org/2000/svg" xmlns:xlink="http://www.w3.org/1999/xlink" x="0px" y="0px"
	 viewBox="0 0 2339.2 744.7" style="enable-background:new 0 0 2339.2 744.7;" xml:space="preserve">
<style type="text/css">
	.st0{fill-rule:evenodd;clip-rule:evenodd;fill:#FFFFFF;}
	.st1{fill-rule:evenodd;clip-rule:evenodd;}
</style>
<g>
	<path class="st0" d="M0,0h2339.2v744.7H0V0z"/>
	<path class="st1" d="M1972.8,96.1v474.4c0.2,71,12,169.5,246.2,159.2V591.5H2171c-29.1,0.7-50.2-8.7-51-39V96.1L1972.8,96.1
		L1972.8,96.1z M1312.2,447.4c-0.9-99.7-81-181.1-180.2-180.2c-101.5-0.9-181.7,80.4-183.2,180.2v282.3H1099V435.4
		c-1-17.9,13-33.2,33-33c17.6-0.1,31.6,15.1,33,33v294.3h147.1V447.4z M2291.1,537.5c-28.2-1-51.3,20-51,48.1
		c-0.3,29.2,22.9,50.2,51,51c26.2-0.8,49.3-21.8,48.1-51C2340.4,557.5,2317.3,536.5,2291.1,537.5z M1582.4,729.7
		c-235.8,10.4-247.5-88.2-246.2-159.2V138.1h147.1v144.1h99.1v72.1c-15.2,19.1-26.9,40.3-36,63.1h-63v135.1
		c-0.6,30.3,20.5,39.7,48.1,39h24c-11.2-25.7-16.7-54.1-18-84.1c1.3-130.7,107.5-236.9,237.2-237.2c88.6,0.3,145,36.4,189.2,93.1
		v72.1l-192.2,132.1l-54-81.1l90.1-60.1c-10.8-3-21.9-5-33-6c-46.3,1.1-84.9,39.8-84.1,87.1c-0.8,47.9,37.8,86.6,84.1,87.1
		c29.8-0.4,57.6-14.9,75.1-39l81.1,132.1c-40.9,35.5-95.3,57.4-156.1,57c-77.1,0.3-149.3-38-192.2-102.1L1582.4,729.7L1582.4,729.7
		L1582.4,729.7z"/>
	<path class="st1" d="M519.5,507.5c-53.9,59.2-131,96.9-219.2,96.1c-45.2,0.9-91.6-9.6-132.1-27V381.3
		c28.2,45.1,76.9,75.5,132.1,75.1c86.5,0.4,155.6-68.7,156.1-153.1c-0.6-86-69.7-155-156.1-156.2c-83.9,1.1-153,70.2-153.1,156.2
		v426.4H0V303.3C-0.3,135.8,134.8,0.6,300.3,0c168,0.6,303.2,135.8,303.3,303.3c-0.1,8.4-1.1,17-3,27c42.8-37.6,97.5-59.7,156.1-60
		c79.4,0.1,153.5,39.5,198.2,105.1c-8.6,20-13.7,41.3-15,63.1L753.7,567.5l-54-81.1l90.1-60.1c-10.8-2.9-21.9-4.9-33-6
		c-46.5,1.1-85.1,39.8-84.1,87.1c-1,47.9,37.6,86.6,84.1,87.1c31.5-0.5,58.3-16.2,75.1-39l81.1,132.1c-41.1,35.5-95.5,57.4-156.1,57
		C626.8,745,520.6,638.8,519.5,507.5L519.5,507.5z"/>
	<path class="st0" d="M2291.1,543.5c22.2,1.2,39.4,19.8,39,42c0.3,24.4-17.5,42-39,42c-23.6-0.1-41.3-17.7-42-42
		C2249.7,562.5,2267.5,544.8,2291.1,543.5z"/>
	<path class="st1" d="M2279.1,588.5h12l15,27h9l-18-27c9.5,0,16-4.5,15-15c1-11.1-5.7-16-18-15h-24v57h9L2279.1,588.5L2279.1,588.5
		L2279.1,588.5z"/>
	<path class="st0" d="M2279.1,564.5h12c6.5,0.3,12.9,1.6,12,9c0.9,8.5-5.7,9-12,9h-12V564.5z"/>
</g>
</svg>
