<svg xmlns="http://www.w3.org/2000/svg" width="536.525" height="77.445" viewBox="0 0 5376 776">
  <metadata><?xpacket begin="﻿" id="W5M0MpCehiHzreSzNTczkc9d"?>
<x:xmpmeta xmlns:x="adobe:ns:meta/" x:xmptk="Adobe XMP Core 5.6-c142 79.160924, 2017/07/13-01:06:39        ">
   <rdf:RDF xmlns:rdf="http://www.w3.org/1999/02/22-rdf-syntax-ns#">
      <rdf:Description rdf:about=""/>
   </rdf:RDF>
</x:xmpmeta>
                                                                                                    
                                                                                                    
                                                                                                    
                                                                                                    
                                                                                                    
                                                                                                    
                                                                                                    
                                                                                                    
                                                                                                    
                                                                                                    
                                                                                                    
                                                                                                    
                                                                                                    
                                                                                                    
                                                                                                    
                                                                                                    
                                                                                                    
                                                                                                    
                                                                                                    
                                                                                                    
                           
<?xpacket end="w"?></metadata>
<defs>
    <style>
      .cls-1 {
        fill-rule: evenodd;
      }
    </style>
  </defs>
  <path id="Färgfyllning_1" data-name="Färgfyllning 1" class="cls-1" d="M156,776H4V16H156V89h1c9.283-13.394,35.311-27.86,50-37,30.294-18.849,64.051-31.912,103-43,11.8-3.36,22.322-2.139,35-5,19.593-4.422,53.449-5.746,74-1,16.161,3.733,30.231,1.8,45,6C587.747,44.209,661.951,110.117,709,222c8.252,19.624,13.149,42.039,19,65,2.635,10.341.56,19.878,3,31,1.816,8.28,4.242,30.174,2,40q-2,21.5-4,43c-6.07,24.582-9.984,49.239-19,71-30.356,73.267-77.068,128.244-141,168-9.312,5.791-19.707,13.445-30,18-19.3,8.539-37.336,13.95-59,21-14.611,4.754-32.639,7.106-49,11l-22,1c-11.33,2.463-33.685,2.6-45,0l-21-1c-20.355-4.823-41.138-6.7-60-13-34.227-11.435-66.825-26.942-94-46-11.509-8.071-21.418-19.238-33-27V776Zm941-290V694H932V65h210c36.3,0,78.71-4.985,109,3,47.87,12.617,82.95,33.031,114,62,5.92,5.528,9.42,14.1,14,21,32.49,48.962,47.74,128.776,24,201-17.79,54.135-49.52,87.568-95,114C1258.93,494.519,1173.54,485.967,1097,486ZM1475,65h164V557h243c-1.13,10.527-7.34,21.152-11,30-8.43,20.362-13.92,41.433-22,61-4.9,11.862-9.04,36.3-16,45-5.13,3.164-19.74,1-27,1H1475V65Zm662,0h188c4.44,20.156,16.22,46.167,24,65,17,41.145,28.33,84.541,45,125,8.53,20.716,12.47,41.283,21,62,23.29,56.545,40.72,117.451,64,174,6.64,16.134,9.37,31.892,16,48,13.31,32.351,22.41,66.869,36,100,6.18,15.061,17.35,38.6,20,55H2397q-19.5-54.5-39-109H2104c-0.87,7.971-5.31,15.513-8,22-8.13,19.621-13.22,40.15-21,59-1.9,4.6-6.48,26.134-9,28H1912c1.48-14.726,13.48-39.651,19-53,12.2-29.512,20.15-60.263,32-89,8.54-20.713,12.47-41.285,21-62,27.46-66.661,47.56-138.344,75-205,7.04-17.108,9.96-33.871,17-51,15.17-36.892,25.53-76.278,41-114C2123.17,104.962,2134.35,81.413,2137,65Zm342,0h522V202H2829V694H2664V202H2479V65Zm598,0h164V694H3077V65Zm267,0h165c3.46,11.468,14.62,22.46,21,32,14.88,22.256,29.89,44.74,44,67,40.33,63.638,81.78,125.289,122,189,13.42,21.265,27.82,42.681,42,64,6.48,9.733,14.53,19.282,20,30h1V65h164V694H3758c-4.08-9.048-10.96-16.052-16-24-15.49-24.42-31.79-48-47-72-41.37-65.282-83.74-128.647-125-194-13.42-21.263-27.85-42.7-42-64-5.91-8.9-15.49-18.44-19-29h-1V694H3344V65Zm679,0h166V381c0,64.325-5.98,116.371,22,154,13.23,17.786,36.7,29.357,61,36l14,1c6.03,1.312,19.41,2.686,27,1,30.83-6.851,57.08-17.619,72-40,5.44-8.166,7.06-17.331,11-27,15.46-37.955,13-88.128,13-142V65h164V366c0,62.706,3.82,129.76-12,178-24.99,76.189-78.45,123.1-150,153-34.44,14.39-72.86,21-123,21-17.86,0-36.34,1.653-52-2-20.42-4.761-40.92-7.611-59-15-58.95-24.09-107.94-61.035-133-119-22.69-52.473-21-127.153-21-202V65Zm672,0h168c1.22,11.127,8.16,21.726,12,31,9.33,22.5,17,45.278,26,67,21.1,50.923,36.91,102.076,58,153,9,21.724,16.68,44.488,26,67,3.5,8.45,8.41,17.6,11,27,0.8-1.021.35-.274,1-2,4.29-5.814,4.96-13.867,8-21,7.41-17.4,13.3-35.878,21-54,25.3-59.522,46.7-122.477,72-182,8.78-20.667,16.09-41.764,24-62,1.49-3.816,6.84-22.785,9-24h167c-0.21,17.393,2.47,36.446,6,52,3.32,14.607,1.96,29.617,5,43q0.495,9,1,18c4.28,18.73,3.75,41.262,8,60q1.5,17.5,3,35c8.1,35.706,5.92,76.3,14,112q1.995,22,4,44c6.86,30.117,5.12,64.756,12,95q1.005,13,2,26c4.93,21.7,2.87,46.378,8,69,4.95,21.846,7.82,50.776,9,74H5221a247.052,247.052,0,0,0-5-39c-3.27-14.53-1.97-29.627-5-43-5.14-22.69-3.08-47.254-8-69q-0.495-9-1-18c-6.2-27.2-4.86-58.782-11-86-5.19-23.01-2.98-47.876-8-70-2.06-9.1.9-22.6-4-29v2c-4.29,5.811-4.97,13.865-8,21-7.82,18.429-14.01,37.79-22,57-25.23,60.633-47.8,124.379-73,185-8.97,21.568-16.39,43.26-25,64-1.65,3.98-6.82,23.7-9,25h-91c-30.66-83.032-63.21-166.72-97-248-10.05-24.17-18.3-48.622-28-72-4.49-10.812-5.99-25.349-13-34v1c-3.9,6.524-1.11,17.75-3,26-5.06,22.105-2.77,47.013-8,70-6.86,30.15-5.21,64.787-12,95q-1.005,13-2,26c-4.91,21.794-2.9,46.337-8,69-4.6,20.448-7.24,45.109-8,67H4623Q4659,379.032,4695,65ZM375,96c-5.66,3.314-20.608,1.185-28,3-15.534,3.814-31.852,6.168-46,12-70.24,28.956-119.08,76.751-148,147-6.327,15.368-8.823,32.97-13,50-8.027,32.724-.083,82.509,8,107,25.249,76.5,69.282,128.274,140,159,16.86,7.325,35.831,12.79,56,18l23,2c9.231,2,29.226,3.446,40,1,23.074-5.238,45.32-5.926,65-14,63.947-26.236,115.583-69.557,143-132,7.744-17.637,12.8-36.926,18-57,11.893-45.941.078-103.727-14-137C580.276,163.477,504.923,96.234,375,96Zm-6,72c97.8-1.167,153.058,40.816,182,108,10.367,24.067,22.081,65.927,13,102-3.775,15-7.234,29.788-13,43-19.355,44.347-56.579,76.535-102,95-13.627,5.54-29.344,6.615-45,10H387c-27.512,0-48.07-5.022-67-13-53.508-22.549-86.443-58.364-105-116-6.142-19.076-11.717-53.457-6-78,2.418-10.379,4.044-22.243,8-32,19.73-48.663,52.342-85.436,100-106,10.287-4.439,21.868-7.067,33-10C355.909,169.443,364.257,170.978,369,168Zm727,27V355h70c15.99,0,32.76,1.056,45-3,22.84-7.569,36.91-22.285,46-44,4.24-10.123,10.01-30.927,6-48C1245.75,186.627,1184.5,194.5,1096,195ZM2311,459c-1.62-15.15-13.37-40.289-19-54-4.86-11.828-6.12-23.149-11-35-10.01-24.324-18.69-51.346-28-76-5.13-13.587-9.21-27.142-14-40-2.07-5.567-2.21-14.256-7-17-1,8.6-6.05,16.91-9,24-5.35,12.852-8.99,25.95-14,38-11.74,28.274-18.34,56.69-30,85-9.46,22.968-22.14,50.292-28,75h160Zm847,716c69.79,0.58,122.93-44.4,127-108h-1c-12.28,18.87-55.7,38.41-91,27-25.79-8.33-45.18-26.82-53-53-2.72-9.11.27-19.19-2-30-3.4-16.2,3.43-33.323,9-44,12.97-24.861,40.77-50.765,80-45,15.84,2.327,27.02.942,39,6,24.97,10.546,40.3,33.169,48,61,2.37,8.572.96,15.57,3,25,2.14,9.93,2.16,29.07,0,39v11q-3.495,18-7,36c-19.62,60.46-66.93,103.68-146,104v-1h-1Q3160.5,1189.005,3158,1175Zm447-254c55.62-.441,83.66,21.486,97,63,2.88,8.951,1.79,16.86,4,27,2.14,9.8,3.49,35.64,1,47-3.19,14.54-3.6,29.46-8,43-19.45,59.89-67.64,102.66-146,103v-1h-1c-0.22-10.01-3.03-19.09-5-28h19c3.61-2.23,9.25-.75,14-2l27-9c27.42-11.99,49.56-37.9,61-66,3.88-9.52,3.55-20.64,7-31h-1c-13.67,20.92-62.35,39.56-98,25-20.88-8.53-38.75-25.96-46-48-3.22-9.78-.44-19.92-3-32-1.27-5.98-1.65-15.209,0-22,7.24-29.88,24.91-52.065,51-63C3584.8,924.152,3599.11,924.6,3605,921Zm-531,3v275h-34V961h-1c-7.05,6.46-44.76,21.852-57,23q-2.505-12.5-5-25c15.46-1.813,43.94-17.5,56-25,4.23-2.628,9.32-8.367,14-10h27Zm-1330,2h75v114c3.23,15.33,1,36.83,1,54,0,16.26,3.43,37.54,0,51-8.59,33.66-38.8,64.18-84,54-14.81-3.34-32.76-1.03-43-9-3.47-5.41-1.13-22.3-1-30h1c7.02,4.98,18.65,4.7,28,7,18.58,4.56,42.99-.07,52-9,13.73-13.61,13-39.43,13-67V956h-42V926Zm235,0h32c0.79,6.851,4.74,12.6,7,18,6.24,14.871,11.09,29.873,17,44,18.5,44.22,31.66,88.74,50,133,6.95,16.76,12.74,34.44,20,52,3.3,7.99,8.6,16.26,10,26h-37c-4.07-19.99-15.33-39.91-23-58-1.64-3.86-5.69-20.35-8-22H1938q-14.505,39.99-29,80h-34c0.57-5.55,3.3-8.95,5-13,6.25-14.88,11.11-29.93,17-44,19.62-46.87,33.55-94.07,53-141,6.51-15.711,12.07-32.548,19-49C1972.35,944.048,1977.52,935.444,1979,926Zm181,0c66.52-.767,137.99-4.894,164,35,4.77,7.325,7.81,17.659,10,27v9c11.27,52.22-28.81,88.48-65,98-17.25,4.54-54.59,1.15-75,1v103h-34V926Zm363,193H2410c-1.56,14.23-13.65,37.99-19,51-3.67,8.93-4.24,20.92-10,28-4.35,2.77-26.74,1.11-34,1,0.82-7.96,5.36-14.7,8-21,6.23-14.9,10.98-29.89,17-44,18.23-42.71,32.49-86.88,50-129,8-19.233,14.18-38.6,22-57q3.495-10.5,7-21c1.47-1.83,27.04-1.086,32-1q53.49,136.485,107,273h-38c-1.92-9.28-6.69-17.96-10-26-5.31-12.9-7.68-25.1-13-38C2526.94,1130.01,2524.02,1125.37,2523,1119Zm109-193h44c13.41,24.527,29.31,48.472,44,72,16.71,26.76,30.47,54.05,47,81,9.01,14.69,17.66,29.96,27,45,3.87,6.23,9.81,12.26,12,20h1V926h32v273h-37c-15.02-27.51-32.67-54.5-49-81s-29.6-53.6-46-80c-9.9-15.93-18.86-32.68-29-49-4.25-6.842-10.66-13.429-13-22h-1v232h-32V926Zm828,0v274h-34V962h-2c-11.32,10.281-37.21,15.922-53,22q-2.505-12.5-5-25c14.25-1.676,41.76-16.1,53-23,4.25-2.61,9.3-8.362,14-10h27Zm-240,24c-3.01,2.03-7.25,1.434-11,3a62.329,62.329,0,0,0-33,33c-2.83,6.809-3,14.52-3,24-0.01,34.8,15.03,51.12,43,58,5.08,1.25,17.36,2.58,24,1,17.9-4.26,34.69-12.16,44-25,2.04-2.81,2.64-5.64,5-8C3289.87,982.732,3274.29,949.111,3220,950Zm388,0q-7.995,2.5-16,5c-11.63,5.317-23.01,18.032-28,30-2.91,6.97-4.7,18.09-3,26q0.495,10,1,20c6.31,20.78,31.64,46.17,66,38,15-3.57,31.96-10.34,40-21,3.21-4.25,5.29-9.28,9-13C3672.02,983.681,3665.5,949.072,3608,950Zm-1414,6v111c61.79,0.75,108.31-.63,106-64a54.98,54.98,0,0,0-4-19C2282.72,954.053,2237.87,955.509,2194,956Zm-201,11c-1.56,14.276-11.75,33.35-17,46-11.05,26.61-18.08,53.85-29,80h93v-1c-6.09-8.37-6.85-20.93-11-31-8.2-19.89-15.81-42.08-24-62C2000.88,988.989,2000,974.3,1993,967Zm427,126h93v-1c-7.35-8.65-10.22-29.39-15-41-6.87-16.7-11.82-34.51-19-52-4.12-10.044-9.27-20.7-12-32-0.8,1.021-.35.274-1,2-8.01,10.874-12.29,35.12-18,49-6.75,16.4-11.92,33.76-19,51C2425.97,1076.37,2421.33,1084.08,2420,1093Z"/>
</svg>
