<svg xmlns="http://www.w3.org/2000/svg" xmlns:xlink="http://www.w3.org/1999/xlink" viewBox="0 0 308 240"><defs><style>.cls-1{fill:none;}.cls-2{clip-path:url(#clip-path);}.cls-3{fill:url(#linear-gradient);}</style><clipPath id="clip-path"><path class="cls-1" d="M159.24,108.25c-.17,13.73,12.23,21.39,21.58,25.95,9.6,4.67,12.83,7.67,12.79,11.85-.07,6.39-7.66,9.22-14.76,9.33-12.39.19-19.59-3.35-25.32-6l-4.46,20.89c5.74,2.65,16.38,5,27.42,5.06,25.89,0,42.84-12.79,42.93-32.61.1-25.15-34.8-26.54-34.56-37.79.08-3.41,3.34-7.05,10.47-8a46.33,46.33,0,0,1,24.31,4.26L224,81a66.11,66.11,0,0,0-23.07-4.23c-24.38,0-41.52,13-41.66,31.5M265.62,78.49a11.24,11.24,0,0,0-10.49,7l-37,88.33H244l5.16-14.23h31.62l3,14.23h22.81L286.68,78.49H265.62m3.62,25.75,7.47,35.8H256.26l13-35.8M127.86,78.49l-20.4,95.32h24.66l20.39-95.32H127.86m-36.48,0L65.71,143.37,55.33,88.2A11.5,11.5,0,0,0,44,78.49H2l-.59,2.77c8.62,1.87,18.4,4.88,24.33,8.11,3.63,2,4.67,3.69,5.86,8.37l19.66,76.07H77.32l40-95.32H91.38"/></clipPath><linearGradient id="linear-gradient" x1="-1727.5" y1="808.73" x2="-1726.89" y2="808.73" gradientTransform="matrix(419.71, -154.57, -154.57, -419.71, 850079.05, 72585.39)" gradientUnits="userSpaceOnUse"><stop offset="0" stop-color="#222357"/><stop offset="1" stop-color="#254aa5"/></linearGradient></defs><g id="Layer_7" data-name="Layer 7"><g id="layer1"><g id="g10267"><g class="cls-2"><g id="g10269"><g id="g10275"><path id="path10283" class="cls-3" d="M-30.55,88.52,270.14-22.22l68.41,185.75L37.86,274.27"/></g></g></g></g></g></g></svg>